<?xml version="1.0" encoding="UTF-8" standalone="no"?>
<!-- Created with Inkscape (http://www.inkscape.org/) -->

<svg
   version="1.1"
   id="svg1"
   width="793.70135"
   height="1122.52"
   viewBox="0 0 793.70135 1122.52"
   xmlns="http://www.w3.org/2000/svg"
   xmlns:svg="http://www.w3.org/2000/svg">
  <defs
     id="defs1" />
  <g
     id="g1">
    <path
       id="text1"
       style="font-size:14.3462px;font-family:'EB Garamond'"
       d="M 76.608753 -9.9563673 C 76.537024 -9.9563673 76.408034 -9.9417299 76.364995 -9.6261136 C 76.278915 -9.0235738 76.192741 -8.6649073 75.920163 -8.1197522 C 75.877123 -8.0336753 75.848271 -7.9188231 75.848271 -7.832746 C 75.848271 -7.7323227 75.877074 -7.6462762 75.948808 -7.6462762 C 76.164 -7.6462762 76.450785 -8.0338362 76.536862 -8.1916442 C 76.737708 -8.564645 77.254453 -8.7510536 77.713531 -8.7510536 L 78.387518 -8.7510536 C 78.875288 -8.7510536 79.133784 -8.7511496 79.406362 -8.6937647 C 79.635901 -8.6507257 79.70741 -8.3350809 79.70741 -7.029578 L 79.70741 -1.4635671 C 79.70741 -0.77495022 79.3059 -0.47330241 78.588591 -0.34418674 C 78.258629 -0.286802 78.115115 -0.21494066 78.115115 -0.085824989 C 78.115115 0.028944496 78.287416 0.072000344 78.531302 0.072000344 C 79.305995 0.072000344 79.650046 0.00010837714 80.367355 0.00010837714 C 81.02728 0.00010837714 81.271451 0.072000344 82.046145 0.072000344 C 82.29003 0.072000344 82.461771 0.028944496 82.461771 -0.085824989 C 82.461771 -0.21494066 82.318256 -0.286802 81.988295 -0.34418674 C 81.270985 -0.47330241 80.855434 -0.77495022 80.855434 -1.4635671 L 80.855434 -7.1014699 C 80.855434 -8.6795504 80.92709 -8.7510536 81.572669 -8.7510536 L 83.021742 -8.7510536 C 83.939898 -8.7510536 84.269341 -8.492801 84.341071 -8.0911078 C 84.412801 -7.718107 84.470574 -7.503054 84.614036 -7.503054 C 84.757498 -7.503054 84.843192 -7.7897727 84.843192 -7.9619269 L 84.843192 -8.1343553 C 84.843192 -8.5073561 84.900894 -8.449962 84.986976 -8.9807709 C 85.001326 -9.0668478 85.044265 -9.2819316 85.044265 -9.3823549 C 85.044265 -9.5258168 85.001111 -9.7126086 84.943728 -9.7126086 C 84.71419 -9.7126086 84.613858 -9.5403719 84.384319 -9.4256024 C 84.068703 -9.2821406 83.681104 -9.2104882 83.02118 -9.2104882 L 77.971331 -9.2104882 C 77.569637 -9.2104882 77.081859 -9.2960859 76.96709 -9.4969327 C 76.88101 -9.6547408 76.680484 -9.9563673 76.608753 -9.9563673 z M 97.869679 -9.9563673 C 97.797949 -9.9563673 97.668959 -9.9417299 97.625921 -9.6261136 C 97.539841 -9.0235738 97.453667 -8.6649073 97.181089 -8.1197522 C 97.138049 -8.0336753 97.109197 -7.9188231 97.109197 -7.832746 C 97.109197 -7.7323227 97.138 -7.6462762 97.209733 -7.6462762 C 97.424926 -7.6462762 97.71171 -8.0338362 97.797787 -8.1916442 C 97.998634 -8.564645 98.515379 -8.7510536 98.974457 -8.7510536 L 99.648444 -8.7510536 C 100.13621 -8.7510536 100.39471 -8.7511496 100.66729 -8.6937647 C 100.89683 -8.6507257 100.96834 -8.3350809 100.96834 -7.029578 L 100.96834 -1.4635671 C 100.96834 -0.77495022 100.56683 -0.47330241 99.849517 -0.34418674 C 99.519554 -0.286802 99.376041 -0.21494066 99.376041 -0.085824989 C 99.376041 0.028944496 99.548342 0.072000344 99.792228 0.072000344 C 100.56693 0.072000344 100.91097 0.00010837714 101.62828 0.00010837714 C 102.28821 0.00010837714 102.53238 0.072000344 103.30707 0.072000344 C 103.55096 0.072000344 103.72326 0.028944496 103.72326 -0.085824989 C 103.72326 -0.21494066 103.57974 -0.286802 103.24978 -0.34418674 C 102.53247 -0.47330241 102.11636 -0.77495022 102.11636 -1.4635671 L 102.11636 -7.1014699 C 102.11636 -8.6795504 102.18799 -8.7510536 102.83359 -8.7510536 L 104.28267 -8.7510536 C 105.20083 -8.7510536 105.53083 -8.492801 105.60256 -8.0911078 C 105.67426 -7.718107 105.7315 -7.503054 105.87496 -7.503054 C 106.01842 -7.503054 106.10468 -7.7897727 106.10468 -7.9619269 L 106.10468 -8.1343553 C 106.10468 -8.5073561 106.16184 -8.449962 106.2479 -8.9807709 C 106.2622 -9.0668478 106.30519 -9.2819316 106.30519 -9.3823549 C 106.30519 -9.5258168 106.26208 -9.7126086 106.20465 -9.7126086 C 105.97511 -9.7126086 105.87478 -9.5403719 105.64524 -9.4256024 C 105.32963 -9.2821406 104.9426 -9.2104882 104.28267 -9.2104882 L 99.232818 -9.2104882 C 98.831125 -9.2104882 98.343347 -9.2960859 98.228577 -9.4969327 C 98.142498 -9.6547408 97.94141 -9.9563673 97.869679 -9.9563673 z M 91.356716 -9.8271865 C 91.299326 -9.7411095 91.255905 -9.4538769 91.083752 -9.3391074 C 90.911598 -9.2243379 90.739744 -9.1813779 90.56759 -9.1239932 C 90.5389 -8.8227233 90.46694 -8.5647582 90.366517 -8.2921806 C 89.390976 -5.6381363 88.760012 -4.0026982 87.684048 -1.5495005 C 87.368431 -0.83219121 86.93786 -0.58818502 86.45009 -0.44472317 C 86.134474 -0.34429987 85.976614 -0.24414677 85.976614 -0.1150311 C 85.976614 -0.00026161523 86.148915 0.072000344 86.392801 0.072000344 C 86.866224 0.072000344 87.483044 -0.014494679 88.114276 -0.014494679 C 88.645085 -0.014494679 89.161895 0.014149777 89.420127 0.014149777 C 89.664011 0.014149777 89.835752 -0.028906071 89.835752 -0.14367556 C 89.835752 -0.27279123 89.692239 -0.344043 89.362276 -0.43012011 C 88.903198 -0.5448896 88.530464 -0.83185184 88.530464 -1.2478912 C 88.530464 -1.4343916 88.989401 -2.9412228 89.118517 -3.3142236 C 89.190247 -3.5150702 89.276199 -3.5720237 89.362276 -3.5720237 L 92.073951 -3.5720237 C 92.332182 -3.5720237 92.418456 -3.5576604 92.461494 -3.4141984 C 92.676687 -2.6968891 93.020903 -1.5061053 93.020903 -1.0900659 C 93.020903 -0.77444981 92.777075 -0.54514647 92.145843 -0.44472317 C 91.887611 -0.40168461 91.672367 -0.30143568 91.672367 -0.17232001 C 91.672367 -0.057550526 91.844108 0.00010837714 92.087993 0.00010837714 C 92.432301 0.00010837714 93.034852 -0.014494679 93.594354 -0.014494679 C 94.239932 -0.014494679 95.187101 0.072000344 95.588794 0.072000344 C 95.832679 0.072000344 96.004981 0.042985896 96.004981 -0.071783589 C 96.004981 -0.20089926 95.861468 -0.34409091 95.531505 -0.40147565 C 94.957658 -0.50189895 94.484126 -0.68881185 94.082433 -1.8365067 C 93.609008 -3.1993943 92.446739 -6.584657 91.528583 -9.4969327 C 91.485543 -9.6117022 91.471651 -9.7265063 91.428608 -9.8125834 C 91.414258 -9.8412754 91.371056 -9.8415324 91.356716 -9.8271865 z M 27.128546 -9.5261388 C 23.943693 -9.5261388 22.236522 -7.1012891 22.236522 -4.5189757 C 22.236522 -1.6927771 24.474436 0.20061956 26.999365 0.20061956 C 30.184218 0.20061956 31.891389 -2.2236685 31.891389 -4.8059819 C 31.891389 -7.6321805 29.653475 -9.5261388 27.128546 -9.5261388 z M 44.473044 -9.5115358 C 41.532076 -9.5115358 38.935678 -7.4167135 38.935678 -4.6335535 C 38.935678 -1.7069317 41.431971 0.21522242 44.114708 0.21522262 C 45.04721 0.21522262 46.122858 0.085959246 46.825821 -0.20096447 C 47.127091 -0.30138777 47.141794 -0.31536792 47.285256 -0.58794544 C 47.45741 -1.0039848 47.672237 -1.75019 47.672237 -1.979729 C 47.672237 -2.2809989 47.313834 -2.2668612 47.18472 -2.0229765 C 46.553487 -0.88962783 45.707056 -0.22960892 44.329822 -0.22960892 C 41.948356 -0.22960892 40.384751 -2.639982 40.384751 -4.9784103 C 40.384751 -7.0872996 41.991281 -9.0667042 44.229286 -9.0667042 C 45.018326 -9.0667042 45.721096 -8.8948029 46.19452 -8.5791868 C 46.696637 -8.2348784 46.897683 -7.7179859 47.084183 -6.9863305 C 47.170263 -6.6563682 47.586608 -6.7857409 47.572262 -7.0009335 C 47.543572 -7.7469352 47.486117 -8.2057854 47.443081 -8.6505172 C 47.414391 -8.9087485 47.313818 -9.0668653 47.026894 -9.1385962 C 46.051354 -9.3824814 45.5777 -9.5115358 44.473044 -9.5115358 z M 126.77755 -9.4542469 C 126.3902 -9.4542469 124.94112 -9.3391074 124.32424 -9.3391074 C 123.63562 -9.3391074 123.46359 -9.3683135 122.73194 -9.3683135 C 122.48805 -9.3683135 122.31576 -9.3109592 122.31576 -9.1818437 C 122.31576 -9.0240357 122.45927 -8.9808667 122.78923 -8.923482 C 123.50654 -8.7943663 123.75023 -8.5646105 123.75023 -7.8759935 L 123.75023 -1.4203196 C 123.75023 -0.73170271 123.50654 -0.47330241 122.78923 -0.34418674 C 122.45927 -0.286802 122.31576 -0.27283914 122.31576 -0.1150311 C 122.31576 0.028430756 122.48805 0.072000344 122.73194 0.072000344 C 123.49229 0.072000344 123.66446 0.00010837714 124.2383 0.00010837714 C 125.37165 0.00010837714 126.93489 0.1006452 127.22182 0.1006448 C 129.96194 0.1006448 132.21438 -2.1520507 132.21438 -4.9065183 C 132.21438 -7.4171008 130.66537 -9.4542469 126.77755 -9.4542469 z M 3.9310303 -9.4396438 C 3.5293371 -9.4396438 2.9120213 -9.3537105 2.3381739 -9.3537105 C 1.7499803 -9.3537105 1.707043 -9.3683135 0.93234894 -9.3683135 C 0.68846378 -9.3683135 0.51672351 -9.3252573 0.51672351 -9.2104882 C 0.51672351 -9.0813725 0.65967558 -8.9808667 0.98963785 -8.923482 C 1.7069471 -8.7943663 1.8652595 -8.3492221 1.8652595 -7.4884509 L 1.8652595 -1.434361 C 1.8652595 -0.73139792 1.5350804 -0.47330241 0.81777112 -0.34418674 C 0.48780885 -0.286802 0.34429512 -0.21494066 0.34429512 -0.085824989 C 0.34429512 0.028944496 0.51659705 0.072000344 0.76048221 0.072000344 C 1.5351762 0.072000344 1.8935246 -0.028536078 2.6251801 -0.028536078 C 3.1703351 -0.028536078 3.256311 0.072000344 4.031005 0.072000344 C 4.2748902 0.072000344 4.4471921 0.028944496 4.4471921 -0.085824989 C 4.4471921 -0.21494066 4.3036784 -0.286802 3.9737161 -0.34418674 C 3.2564068 -0.47330241 3.0127227 -0.90356944 3.0127227 -1.5921863 L 3.0127227 -8.4354029 C 3.0127227 -8.8657885 3.3858752 -9.0380598 3.9310303 -9.0380598 C 5.3226103 -9.0380598 6.3264931 -8.306515 6.3264931 -6.7858193 C 6.3264931 -5.0929694 5.7386709 -4.0887472 4.590976 -4.0887472 C 4.203629 -4.0887472 4.0171074 -4.1173917 3.9310303 -4.1173917 C 3.830607 -4.1173917 3.701313 -3.9880498 3.701313 -3.9163188 C 3.701313 -3.8015493 3.9306163 -3.6439157 4.3466557 -3.6439157 C 6.5416221 -3.6439157 7.5604513 -5.1217749 7.5604513 -6.8863557 C 7.5604513 -8.4931285 6.1116505 -9.4396438 3.9310303 -9.4396438 z M 14.059373 -9.4256024 C 13.227295 -9.4256024 12.954383 -9.3537105 12.409227 -9.3537105 C 11.821034 -9.3537105 11.778096 -9.3683135 11.003402 -9.3683135 C 10.759517 -9.3683135 10.587215 -9.3252573 10.587215 -9.2104882 C 10.587215 -9.0813725 10.73073 -8.9521743 11.060691 -8.923482 C 11.878425 -8.8374051 11.936313 -8.6366116 11.936313 -7.5463015 L 11.936313 -1.434361 C 11.936313 -0.73139792 11.606134 -0.47330241 10.888825 -0.34418674 C 10.558862 -0.286802 10.415349 -0.21494066 10.415349 -0.085824989 C 10.415349 0.028944496 10.587651 0.072000344 10.831536 0.072000344 C 11.60623 0.072000344 11.964578 -0.028536078 12.696234 -0.028536078 C 13.241389 -0.028536078 13.327364 0.072000344 14.102059 0.072000344 C 14.345943 0.072000344 14.518246 0.028944496 14.518246 -0.085824989 C 14.518246 -0.21494066 14.374732 -0.286802 14.04477 -0.34418674 C 13.32746 -0.47330241 13.083776 -0.96125897 13.083776 -1.578145 L 13.083776 -4.1027886 C 13.083776 -4.2749428 13.141078 -4.404141 13.29889 -4.3897948 C 13.557121 -4.3611029 14.016274 -4.2895938 14.432312 -4.0887472 C 14.719236 -3.9452854 14.891203 -3.7875692 15.049011 -3.5293379 C 16.038898 -1.9225651 16.526958 -1.3341388 17.229921 -0.47336762 C 17.732037 0.14351836 18.392026 0.30115599 19.209758 0.30115599 C 19.568413 0.30115599 20.371824 0.21507492 20.371824 -0.20096447 C 20.371824 -0.31573395 20.299611 -0.3587898 20.156148 -0.3587898 C 19.481878 -0.3587898 19.008681 -0.38753404 18.506565 -0.8322658 C 17.158023 -2.0516916 16.483842 -3.1277484 15.594379 -4.4762898 C 15.536989 -4.5623668 15.522649 -4.6340673 15.594379 -4.6627596 C 16.383419 -5.0644528 17.28721 -5.7816688 17.28721 -7.0728255 C 17.28721 -8.6365597 16.153916 -9.4256024 14.059373 -9.4256024 z M 50.455804 -9.3683135 C 50.211919 -9.3683135 50.039617 -9.3252573 50.039617 -9.2104882 C 50.039617 -9.0813725 50.18313 -8.9808667 50.513093 -8.923482 C 51.230402 -8.7943663 51.474086 -8.5648673 51.474086 -7.8905966 L 51.474086 -1.4057166 C 51.474086 -0.73144584 51.072577 -0.47330241 50.355268 -0.34418674 C 50.025305 -0.286802 49.881792 -0.21494066 49.881792 -0.085824989 C 49.881792 0.028944496 50.054094 0.072000344 50.297979 0.072000344 C 51.072673 0.072000344 51.416723 0.00010837714 52.134032 0.00010837714 C 52.793956 0.00010837714 53.038128 0.072000344 53.812822 0.072000344 C 54.056707 0.072000344 54.228447 0.028944496 54.228447 -0.085824989 C 54.228447 -0.21494066 54.084934 -0.286802 53.754971 -0.34418674 C 53.037662 -0.47330241 52.622111 -0.73144584 52.622111 -1.4057166 L 52.622111 -7.8905966 C 52.622111 -8.5648673 52.923084 -8.7943663 53.640394 -8.923482 C 53.970355 -8.9808669 54.11387 -9.0813725 54.11387 -9.2104882 C 54.11387 -9.3252577 53.941568 -9.3683135 53.697682 -9.3683135 C 52.922989 -9.3683135 52.750918 -9.325066 52.134032 -9.325066 C 51.474107 -9.325066 51.230498 -9.3683135 50.455804 -9.3683135 z M 57.0547 -9.3683135 C 56.810815 -9.3683135 56.639075 -9.3252573 56.639075 -9.2104882 C 56.639075 -9.0813725 56.796373 -8.9952608 57.111989 -8.8948375 C 57.59976 -8.7513757 57.915384 -8.378158 58.11623 -7.8473491 L 60.741972 -0.80362134 C 60.828052 -0.54539 60.956943 -0.12884626 61.043019 0.072000344 C 61.071709 0.14373127 61.143461 0.17197471 61.200845 0.17197511 C 61.258235 0.17197511 61.315937 0.12938509 61.344629 0.072000344 C 61.502438 -0.27230811 61.731514 -0.98985155 61.788899 -1.1333134 L 64.485971 -7.6754824 C 64.701163 -8.191945 65.189394 -8.7656739 65.892357 -8.923482 C 66.222319 -8.9952129 66.365272 -9.0813725 66.365272 -9.2104882 C 66.365272 -9.3252577 66.193531 -9.3683135 65.949646 -9.3683135 C 65.576645 -9.3683135 64.873605 -9.325066 64.314104 -9.325066 C 63.768948 -9.325066 63.266677 -9.3391074 62.893676 -9.3391074 C 62.649791 -9.3391074 62.477489 -9.2966128 62.477489 -9.1818437 C 62.477489 -9.052728 62.664041 -8.9378761 62.950965 -8.8948375 C 63.56785 -8.8087606 64.012861 -8.3924523 63.625514 -7.3738731 L 61.659718 -2.2094463 C 61.602338 -2.0803306 61.530584 -2.1231123 61.501892 -2.1948432 L 59.436122 -7.6462762 C 59.393082 -7.7753919 59.278296 -8.0195073 59.278296 -8.3494695 C 59.278296 -8.6794318 59.666051 -8.8514942 60.211207 -8.9088789 C 60.541169 -8.9375709 60.684683 -9.0667694 60.684683 -9.1958851 C 60.684683 -9.3106546 60.512382 -9.3537105 60.268496 -9.3537105 C 59.981572 -9.3537105 59.378668 -9.325066 58.80482 -9.325066 C 58.144896 -9.325066 57.499432 -9.3683135 57.0547 -9.3683135 z M 69.27802 -9.3683135 C 69.034135 -9.3683135 68.861832 -9.3252573 68.861832 -9.2104882 C 68.861832 -9.0813725 69.005347 -8.9808667 69.335308 -8.923482 C 70.052618 -8.7943663 70.296302 -8.5648673 70.296302 -7.8905966 L 70.296302 -1.4057166 C 70.296302 -0.73144584 69.894792 -0.47330241 69.177483 -0.34418674 C 68.84752 -0.286802 68.704007 -0.21494066 68.704007 -0.085824989 C 68.704007 0.028944496 68.876309 0.072000344 69.120194 0.072000344 C 69.894888 0.072000344 70.238938 0.00010837714 70.956248 0.00010837714 C 71.616172 0.00010837714 71.860343 0.072000344 72.635037 0.072000344 C 72.878923 0.072000344 73.050663 0.028944496 73.050663 -0.085824989 C 73.050663 -0.21494066 72.907149 -0.286802 72.577187 -0.34418674 C 71.859878 -0.47330241 71.444327 -0.73144584 71.444327 -1.4057166 L 71.444327 -7.8905966 C 71.444327 -8.5648673 71.7453 -8.7943663 72.462609 -8.923482 C 72.792571 -8.9808669 72.936085 -9.0813725 72.936085 -9.2104882 C 72.936085 -9.3252577 72.763783 -9.3683135 72.519898 -9.3683135 C 71.745204 -9.3683135 71.573133 -9.325066 70.956248 -9.325066 C 70.296323 -9.325066 70.052714 -9.3683135 69.27802 -9.3683135 z M 109.53303 -9.3683135 C 109.28915 -9.3683135 109.1174 -9.3252573 109.1174 -9.2104882 C 109.1174 -9.0813725 109.26036 -8.9808667 109.59032 -8.923482 C 110.30763 -8.7943663 110.55187 -8.5646105 110.55187 -7.8759935 L 110.55187 -1.4203196 C 110.55187 -0.73170271 110.20765 -0.47330241 109.49034 -0.34418674 C 109.16037 -0.286802 109.01687 -0.21494066 109.01687 -0.085824989 C 109.01687 0.028944496 109.18861 0.072000344 109.43249 0.072000344 L 109.43305 0.072000344 C 110.20775 0.072000344 110.43707 -0.014494679 111.08264 -0.014494679 C 112.51725 -0.014494679 113.73677 0.072000344 115.57308 0.072000344 C 115.68785 0.072000344 115.71621 -0.04320434 115.77359 -0.17232001 C 115.94575 -0.55966702 116.21842 -1.5782754 116.21842 -1.8365067 C 116.21842 -1.9512762 116.16099 -2.0226717 116.06059 -2.0370179 C 115.96016 -2.0513639 115.88882 -1.9653176 115.83144 -1.8505481 C 115.53017 -1.2767007 115.31494 -0.94661737 115.01367 -0.74577078 C 114.7124 -0.55927036 114.32471 -0.50201208 113.70782 -0.50201208 L 112.64629 -0.50201208 C 112.00071 -0.50201208 111.69933 -0.73191166 111.69933 -1.4635671 L 111.69933 -4.2179281 C 111.69933 -4.5478904 111.85745 -4.5908677 112.18741 -4.5908677 L 113.52135 -4.5908677 C 113.89435 -4.5908677 114.06652 -4.389695 114.18129 -3.9449633 C 114.25299 -3.6436934 114.36808 -3.4860903 114.51155 -3.4860903 C 114.62632 -3.4860903 114.64073 -3.6007334 114.64073 -3.729849 C 114.64073 -3.8446185 114.61152 -4.5477027 114.61152 -4.8346264 C 114.61152 -5.0641653 114.65477 -5.7097516 114.65477 -5.8388673 C 114.65477 -5.9823291 114.54003 -6.0685846 114.4683 -6.0685846 C 114.35353 -6.0685846 114.26732 -5.9681267 114.20994 -5.7529339 C 114.06647 -5.222125 113.93762 -5.0497406 113.37812 -5.0497406 L 111.9577 -5.0497406 C 111.81424 -5.0497406 111.69933 -5.1932371 111.69933 -5.3653913 L 111.69933 -8.4067585 C 111.69933 -8.679336 112.05826 -8.8661931 112.21606 -8.8661931 L 114.09536 -8.8661931 C 114.45401 -8.8661931 114.78377 -8.7799205 115.05635 -8.4786504 C 115.18547 -8.3351886 115.27157 -8.0051398 115.372 -7.6895238 C 115.4007 -7.5891005 115.42942 -7.5463015 115.52983 -7.5463015 C 115.61593 -7.5463015 115.7309 -7.5892619 115.7309 -7.7614157 C 115.7309 -8.1487627 115.61621 -8.6939776 115.51579 -9.2391326 C 115.50139 -9.3395559 115.35785 -9.3683135 115.25743 -9.3683135 L 114.03807 -9.3391074 C 113.43553 -9.3391074 112.7035 -9.325066 112.07227 -9.325066 C 111.06805 -9.325066 110.609 -9.3683135 109.53303 -9.3683135 z M 135.91569 -9.3683135 C 135.67181 -9.3683135 135.50007 -9.3252573 135.50007 -9.2104882 C 135.50007 -9.0813725 135.64302 -8.9808667 135.97298 -8.923482 C 136.69029 -8.7943663 136.93454 -8.5646105 136.93454 -7.8759935 L 136.93454 -1.4203196 C 136.93454 -0.73170271 136.59032 -0.47330241 135.87301 -0.34418674 C 135.54304 -0.286802 135.39953 -0.21494066 135.39953 -0.085824989 C 135.39953 0.028944496 135.57128 0.072000344 135.81516 0.072000344 L 135.81572 0.072000344 C 136.59042 0.072000344 136.81973 -0.014494679 137.4653 -0.014494679 C 138.89992 -0.014494679 140.11943 0.072000344 141.95574 0.072000344 C 142.07051 0.072000344 142.09887 -0.04320434 142.15625 -0.17232001 C 142.32841 -0.55966702 142.60109 -1.5782754 142.60109 -1.8365067 C 142.60109 -1.9512762 142.54366 -2.0226717 142.44326 -2.0370179 C 142.34283 -2.0513639 142.27148 -1.9653176 142.2141 -1.8505481 C 141.91283 -1.2767007 141.6976 -0.94661737 141.39633 -0.74577078 C 141.09506 -0.55927036 140.70737 -0.50201208 140.09048 -0.50201208 L 139.02895 -0.50201208 C 138.38337 -0.50201208 138.082 -0.73191166 138.082 -1.4635671 L 138.082 -4.2179281 C 138.082 -4.5478904 138.24012 -4.5908677 138.57008 -4.5908677 L 139.90401 -4.5908677 C 140.27701 -4.5908677 140.44919 -4.389695 140.56396 -3.9449633 C 140.63566 -3.6436934 140.75074 -3.4860903 140.89421 -3.4860903 C 141.00898 -3.4860903 141.02339 -3.6007334 141.02339 -3.729849 C 141.02339 -3.8446185 140.99419 -4.5477027 140.99419 -4.8346264 C 140.99419 -5.0641653 141.03744 -5.7097516 141.03744 -5.8388673 C 141.03744 -5.9823291 140.9227 -6.0685846 140.85097 -6.0685846 C 140.7362 -6.0685846 140.64998 -5.9681267 140.5926 -5.7529339 C 140.44913 -5.222125 140.32029 -5.0497406 139.76079 -5.0497406 L 138.34036 -5.0497406 C 138.1969 -5.0497406 138.082 -5.1932371 138.082 -5.3653913 L 138.082 -8.4067585 C 138.082 -8.679336 138.44093 -8.8661931 138.59872 -8.8661931 L 140.47803 -8.8661931 C 140.83668 -8.8661931 141.16644 -8.7799205 141.43902 -8.4786504 C 141.56814 -8.3351886 141.65424 -8.0051398 141.75467 -7.6895238 C 141.78337 -7.5891005 141.81209 -7.5463015 141.9125 -7.5463015 C 141.9986 -7.5463015 142.11357 -7.5892619 142.11357 -7.7614157 C 142.11357 -8.1487627 141.99887 -8.6939776 141.89845 -9.2391326 C 141.88405 -9.3395559 141.74051 -9.3683135 141.64009 -9.3683135 L 140.42074 -9.3391074 C 139.8182 -9.3391074 139.08617 -9.325066 138.45494 -9.325066 C 137.45071 -9.325066 136.99166 -9.3683135 135.91569 -9.3683135 z M 145.54248 -9.3683135 C 145.29859 -9.3683135 145.12629 -9.3252573 145.12629 -9.2104882 C 145.12629 -9.0813725 145.26981 -8.9808667 145.59977 -8.923482 C 146.31708 -8.7943663 146.56076 -8.5648673 146.56076 -7.8905966 L 146.56076 -1.4057166 C 146.56076 -0.73144584 146.15925 -0.47330241 145.44194 -0.34418674 C 145.11198 -0.286802 144.96847 -0.21494066 144.96847 -0.085824989 C 144.96847 0.028944496 145.14076 0.072000344 145.38465 0.072000344 C 146.15934 0.072000344 146.5034 0.00010837714 147.22071 0.00010837714 C 147.88064 0.00010837714 148.12423 0.072000344 148.89893 0.072000344 C 149.14281 0.072000344 149.31512 0.028944496 149.31512 -0.085824989 C 149.31512 -0.21494066 149.1716 -0.286802 148.84165 -0.34418674 C 148.12434 -0.47330241 147.70822 -0.73144584 147.70822 -1.4057166 L 147.70822 -7.8905966 C 147.70822 -8.5648673 148.00976 -8.7943663 148.72707 -8.923482 C 149.05704 -8.9808669 149.20054 -9.0813725 149.20054 -9.2104882 C 149.20054 -9.3252577 149.02824 -9.3683135 148.78436 -9.3683135 C 148.00966 -9.3683135 147.8376 -9.325066 147.22071 -9.325066 C 146.56079 -9.325066 146.31717 -9.3683135 145.54248 -9.3683135 z M 126.84888 -9.0094153 C 128.81431 -9.0094153 130.8518 -7.4172273 130.8518 -4.6627596 C 130.8518 -2.1665233 129.28796 -0.40147565 127.04995 -0.40147565 C 125.974 -0.40147565 124.89825 -0.57392924 124.89825 -1.7359703 L 124.89825 -8.1343553 C 124.89825 -8.9951264 125.60076 -9.0094153 126.84888 -9.0094153 z M 13.886944 -8.9948123 C 15.694564 -8.9948123 15.995963 -8.0051492 15.995963 -6.8431082 C 15.995963 -5.7384519 15.164108 -4.7200485 13.844258 -4.7200485 C 13.370835 -4.7200485 13.083776 -4.7487445 13.083776 -5.222169 C 13.083776 -6.3698639 13.098081 -7.173109 13.112421 -7.6608793 C 13.155461 -8.6507661 13.270058 -8.9948123 13.886944 -8.9948123 z M 26.89939 -8.923482 C 29.295204 -8.923482 30.514208 -6.756833 30.514208 -4.1027886 C 30.514208 -1.8504375 29.409445 -0.3728312 27.214479 -0.3728312 C 24.818666 -0.3728312 23.613703 -2.5678199 23.613703 -5.2362104 C 23.613703 -7.4742154 24.733116 -8.923482 26.89939 -8.923482 z M 90.897282 -8.0197775 C 90.940322 -8.0197775 90.969077 -7.9335702 91.026463 -7.7614157 L 92.145843 -4.260614 C 92.160193 -4.203229 92.174488 -4.146084 92.174488 -4.1173917 C 92.174488 -4.0456607 92.116882 -4.0454997 91.973415 -4.0454997 L 89.749819 -4.0454997 C 89.563319 -4.0454997 89.448771 -4.0456128 89.448771 -4.1460361 C 89.448771 -4.1747281 89.463076 -4.2175754 89.477415 -4.260614 L 90.782704 -7.7754571 C 90.840094 -7.9332652 90.868593 -8.0197775 90.897282 -8.0197775 z "
       transform="matrix(3.47744,0,0,3.47744,144,154.62267)" />
  </g>
</svg>
